<?xml version="1.0" encoding="UTF-8"?>
<svg version="1.1" xmlns="http://www.w3.org/2000/svg" width="1024" height="1024">
<path d="M0 0 C4.33961685 3.87544731 7.78611378 8.4015722 11.3125 13 C11.9091748 13.77239014 12.50584961 14.54478027 13.12060547 15.34057617 C18.66989323 22.53688337 24.17525991 29.76723156 29.66918945 37.00585938 C32.73401019 41.04220699 35.8039811 45.0658143 39 49 C48.77916324 36.59942608 58.45105038 24.12909691 67.89038086 11.46728516 C76.43964939 0.01724303 76.43964939 0.01724303 80 -1 C84.27410733 -0.92367665 86.27416628 -0.70673283 89.375 2.3125 C91.71274807 6.17877565 91.71274807 6.17877565 92 9 C88.74832541 16.0149763 83.45441374 22.03700661 78.51953125 27.921875 C74.09122154 33.33196501 69.9666019 38.97255972 65.79911804 44.58441162 C63.63962615 47.48385646 61.47070265 50.3761816 59.30078125 53.26782227 C58.88590454 53.8208326 58.47102783 54.37384293 58.0435791 54.94361115 C57.02913019 56.29579888 56.01457588 57.64790754 55 59 C55.84365616 59.00586624 56.68731232 59.01173248 57.55653381 59.01777649 C65.57233812 59.07608243 73.58787492 59.14836986 81.6034174 59.23571491 C85.72265161 59.28012631 89.84179353 59.31944343 93.96118164 59.34643555 C97.94901731 59.37276452 101.93649202 59.41336608 105.92410088 59.46318626 C107.43279916 59.47965781 108.94155959 59.49129303 110.45033455 59.49761391 C128.22806029 59.57950361 145.48796419 61.8348343 158.96484375 74.67578125 C173.92238648 91.75781181 172.15993426 113.87408338 172.16796875 135.11328125 C172.17119153 137.13762942 172.17455633 139.16197736 172.17805481 141.18632507 C172.18400697 145.40962259 172.18589871 149.63289976 172.18530273 153.85620117 C172.18520121 159.22154011 172.19886166 164.58674645 172.21607494 169.95205402 C172.22728598 174.12780842 172.22921919 178.30353165 172.22869301 182.47929955 C172.22985914 184.45529831 172.23420225 186.43129825 172.24202538 188.40728188 C172.39121415 229.96856844 172.39121415 229.96856844 157.0390625 246.0546875 C141.25165959 261.1581596 121.11392137 262.14358947 100.43505859 262.16113281 C99.00290808 262.16577314 97.57075877 262.17079939 96.13861084 262.17617798 C92.27874016 262.1891865 88.41888677 262.19572403 84.55899763 262.20018864 C82.13778553 262.20313798 79.71657797 262.20724608 77.29536819 262.21169281 C69.69158878 262.22533691 62.08781997 262.23501878 54.48402917 262.2388947 C45.75900309 262.24336893 37.03413417 262.26090035 28.30915582 262.2898953 C21.52910344 262.31163124 14.74909489 262.32160528 7.96900809 262.32293582 C3.93600676 262.3239753 -0.09684624 262.32969769 -4.12981033 262.34775543 C-54.73139453 262.5612748 -54.73139453 262.5612748 -73.15625 244.9375 C-89.17871015 228.19761626 -87.15993275 205.15261846 -87.16796875 183.6328125 C-87.17119115 181.58364846 -87.17455592 179.53448463 -87.17805481 177.48532104 C-87.18400711 173.21074897 -87.18589867 168.93619701 -87.18530273 164.66162109 C-87.18520114 159.22668219 -87.19886847 153.79187399 -87.21607494 148.35696602 C-87.22727573 144.13063991 -87.22921951 139.90434464 -87.22869301 135.67800522 C-87.2298604 133.67606022 -87.23421097 131.67411408 -87.24202538 129.67218399 C-87.38569022 89.08317823 -87.38569022 89.08317823 -73 74 C-59.77750097 61.38894601 -43.39088707 59.73360994 -25.92578125 59.5859375 C-24.50659618 59.56718128 -23.08742174 59.54760474 -21.66825867 59.5272522 C-17.9711439 59.47639444 -14.27399316 59.43652397 -10.57672119 59.39910889 C-6.78869063 59.35877484 -3.00080367 59.30781824 0.78710938 59.2578125 C8.19130697 59.16160383 15.59557534 59.077027 23 59 C21.99658569 57.69784546 21.99658569 57.69784546 20.97290039 56.36938477 C20.07696836 55.20590526 19.18105463 54.04241167 18.28515625 52.87890625 C17.84643188 52.30966431 17.40770752 51.74042236 16.95568848 51.15393066 C12.5842073 45.47524146 8.28899673 39.74123597 4 34 C1.69373704 30.92370572 -0.61370798 27.84830336 -2.921875 24.7734375 C-4.22734336 23.03117709 -5.52987424 21.28670775 -6.828125 19.5390625 C-7.62476563 18.46785156 -7.62476563 18.46785156 -8.4375 17.375 C-8.88996094 16.76398438 -9.34242188 16.15296875 -9.80859375 15.5234375 C-11.06247941 13.85658885 -11.06247941 13.85658885 -13 12 C-13.47016989 7.8468326 -13.44021988 5.6982798 -11.1875 2.125 C-7.51856398 -1.43910927 -4.75200785 -1.3305622 0 0 Z M5 106 C2.5408653 110.64816995 2.71059619 115.06892582 2.7253418 120.19311523 C2.72023087 121.11079681 2.71511993 122.02847839 2.70985413 122.97396851 C2.69597376 126.00224358 2.69691369 129.03029068 2.69921875 132.05859375 C2.69533108 134.16699813 2.69099627 136.27540173 2.68623352 138.38380432 C2.67877474 142.80122416 2.67906022 147.21856407 2.68432617 151.63598633 C2.69012154 157.29308032 2.67318636 162.94984699 2.6499815 168.60688686 C2.63524081 172.96065683 2.63437291 177.31434801 2.63749123 181.6681385 C2.63697823 183.75371003 2.63174447 185.83928599 2.62167931 187.9248333 C2.60932536 190.84260128 2.61610042 193.75973224 2.62768555 196.67749023 C2.62004181 197.53638351 2.61239807 198.39527679 2.60452271 199.28019714 C2.65532127 205.07655723 3.59054327 209.41206499 7.6875 213.8125 C11.26611911 215.65016927 14.02540161 216.47346313 18 216 C27.40260922 212.6401343 35.7174121 206.72424528 43.98803711 201.24902344 C50.33821407 197.04681385 56.78737766 193.04916456 63.3125 189.125 C71.53450076 184.15787705 79.6797848 179.08548975 87.75 173.875 C88.73266846 173.2473877 89.71533691 172.61977539 90.7277832 171.97314453 C91.6374585 171.38130371 92.54713379 170.78946289 93.484375 170.1796875 C94.28584961 169.66132324 95.08732422 169.14295898 95.91308594 168.60888672 C99.05427143 166.18721938 100.69801716 163.97065911 101.875 160.1875 C102.03510925 156.10471407 101.42499314 153.25591915 99 150 C92.3476166 144.58282659 84.72557578 140.24840429 77.4375 135.75 C70.41870473 131.39217656 63.41816183 127.01605804 56.5 122.5 C49.41917473 117.88787339 42.28209099 113.36780342 35.125 108.875 C34.07119141 108.21048828 33.01738281 107.54597656 31.93164062 106.86132812 C30.94615234 106.24451172 29.96066406 105.62769531 28.9453125 104.9921875 C28.06375488 104.43901855 27.18219727 103.88584961 26.27392578 103.31591797 C19.03192276 99.12497999 10.69417561 99.61179744 5 106 Z " fill="#26929E" transform="translate(201,355)"/>
<path d="M0 0 C10.85024745 -0.09349869 21.70039596 -0.16416402 32.55096722 -0.20724869 C37.59166075 -0.22794785 42.63207471 -0.25593385 47.67260742 -0.30175781 C52.55507384 -0.34585691 57.4372748 -0.36926912 62.31992531 -0.37950897 C64.16426576 -0.38678737 66.00859499 -0.40099186 67.85281944 -0.42292023 C77.8521638 -0.53686992 87.41753274 -0.04490734 97.26489258 1.79785156 C98.53816548 2.03569681 98.53816548 2.03569681 99.83716106 2.27834702 C115.12948122 5.42585875 128.27081402 13.69967332 137.4375 26.4375 C140.43434635 31.30520996 142.32734791 36.55315859 144 42 C144.29197266 42.90105469 144.29197266 42.90105469 144.58984375 43.8203125 C147.14510905 57.39972237 144.73918646 71.55946349 137 83 C132.09581691 89.66968901 125.97122593 95.34292469 118 98 C118.75023437 98.3403125 119.50046875 98.680625 120.2734375 99.03125 C134.69990202 105.8629259 144.45713925 114.50632607 150.2734375 129.578125 C154.3410735 143.13691168 152.59159244 158.19017005 147 171 C139.00736664 185.75198205 125.6660813 194.50528786 109.8671875 199.26171875 C95.14102798 203.05360451 80.42955985 203.14176844 65.33203125 203.09765625 C63.44203224 203.09578786 61.55203275 203.09436595 59.66203308 203.09336853 C54.72198109 203.08957647 49.78195917 203.07977499 44.84191895 203.06866455 C39.78719489 203.05837872 34.73246591 203.05385564 29.67773438 203.04882812 C19.78514314 203.0381493 9.89257409 203.02111332 0 203 C-1.93295415 198.14610279 -2.27560271 193.76583826 -2.22705078 188.60791016 C-2.22734283 187.78773407 -2.22763489 186.96755798 -2.22793579 186.12252808 C-2.22654919 183.42792966 -2.21101971 180.73361226 -2.1953125 178.0390625 C-2.19157999 176.16433869 -2.18873414 174.28961293 -2.18673706 172.41488647 C-2.17911939 167.49280361 -2.15948695 162.57083973 -2.1373291 157.64880371 C-2.11683044 152.62135426 -2.10772675 147.59388549 -2.09765625 142.56640625 C-2.07623927 132.71088537 -2.04212589 122.8554526 -2 113 C-2.66 112.67 -3.32 112.34 -4 112 C-3.34 112 -2.68 112 -2 112 C-2.03029297 111.319375 -2.06058594 110.63875 -2.09179688 109.9375 C-2.71771671 95.45467797 -3.10671452 80.99539867 -3.125 66.5 C-3.12749756 65.80132812 -3.12999512 65.10265625 -3.13256836 64.3828125 C-3.13844153 62.39063366 -3.13580078 60.39843526 -3.1328125 58.40625 C-3.13168457 57.26478516 -3.13055664 56.12332031 -3.12939453 54.94726562 C-3.01852875 52.422036 -2.63742505 50.41892151 -2 48 C-2.11676378 45.25897028 -2.28936833 42.54616372 -2.5 39.8125 C-3.0247154 31.70552653 -2.98910845 23.67941947 -2.6875 15.5625 C-2.65269531 14.47880127 -2.61789062 13.39510254 -2.58203125 12.27856445 C-2.53820312 11.25980225 -2.494375 10.24104004 -2.44921875 9.19140625 C-2.41143311 8.28592041 -2.37364746 7.38043457 -2.3347168 6.44750977 C-1.98537116 3.89303131 -1.19659486 2.25737113 0 0 Z M45 38 C43.80428614 38.97633465 43.80428614 38.97633465 43.87974548 40.79066467 C43.88196609 41.57009933 43.88418671 42.349534 43.88647461 43.15258789 C43.88655014 44.03342545 43.88662567 44.914263 43.88670349 45.8217926 C43.89186478 46.77907761 43.89702606 47.73636261 43.90234375 48.72265625 C43.9037587 49.69786728 43.90517365 50.67307831 43.90663147 51.67784119 C43.91224867 54.80609143 43.92480407 57.93427123 43.9375 61.0625 C43.94251278 63.17773334 43.94707607 65.29296781 43.95117188 67.40820312 C43.96222369 72.60549296 43.97897854 77.80274145 44 83 C47.94690003 83.05003872 51.89367309 83.08601633 55.84082031 83.10986328 C57.83144637 83.12467591 59.82198437 83.15010992 61.8125 83.17578125 C73.13753792 83.23297841 83.35859905 82.45110192 93 76 C97.96718908 70.78379616 98.36521797 64.95443308 98.265625 58.07421875 C97.78655152 52.52964779 96.2079817 48.87699393 91.94140625 45.25 C85.1106485 40.45810249 79.5934704 38.80303414 71.30859375 39 C69 39 69 39 66.5 38.4375 C63.03326301 37.83082103 59.84544449 38.40090487 56.3671875 38.80859375 C53.72166896 39.02250532 51.5581349 38.67715336 49 38 C47.68 38 46.36 38 45 38 Z M44 117 C44 133.17 44 149.34 44 166 C68.67624133 168.77902689 68.67624133 168.77902689 92 162 C92 161.34 92 160.68 92 160 C92.60457031 159.91363281 93.20914063 159.82726562 93.83203125 159.73828125 C96.62055587 158.78867557 97.21169272 157.69683794 98.6875 155.1875 C99.10386719 154.50042969 99.52023437 153.81335938 99.94921875 153.10546875 C103.01649741 146.95950891 102.97846739 139.31861391 101 132.8125 C98.4867547 127.05297953 93.90835991 123.41348862 88.34765625 120.7109375 C78.04573509 116.69419966 67.8734028 116.86251019 56.9375 116.9375 C52.668125 116.958125 48.39875 116.97875 44 117 Z " fill="#16414D" transform="translate(572,416)"/>
<path d="M0 0 C1.35013939 -0.00855011 1.35013939 -0.00855011 2.72755432 -0.01727295 C4.63321759 -0.02672701 6.53889725 -0.03325854 8.44458008 -0.03710938 C11.36373275 -0.0468245 14.28218426 -0.07784767 17.20117188 -0.109375 C19.05077706 -0.11590402 20.90038729 -0.12115489 22.75 -0.125 C23.62506699 -0.1373468 24.50013397 -0.1496936 25.40171814 -0.16241455 C26.21588699 -0.15941345 27.03005585 -0.15641235 27.86889648 -0.15332031 C28.94239601 -0.15878876 28.94239601 -0.15878876 30.0375824 -0.16436768 C31.94140625 0.203125 31.94140625 0.203125 33.6746521 1.22218323 C35.68085751 4.35947399 35.33216812 7.65012469 35.28198242 11.25463867 C35.28263954 12.48424568 35.28263954 12.48424568 35.28330994 13.73869324 C35.28121896 16.44973523 35.25787361 19.16015972 35.234375 21.87109375 C35.22878014 23.75010337 35.22450952 25.62911737 35.22151184 27.50813293 C35.21005442 32.45498729 35.18057951 37.40157763 35.1473999 42.34832764 C35.11671836 47.39559355 35.1030106 52.4429021 35.08789062 57.49023438 C35.05571069 67.39464728 35.00450347 77.29886419 34.94140625 87.203125 C36.92089261 86.86448317 36.92089261 86.86448317 38.94140625 86.203125 C39.6664876 84.561029 40.31884601 82.8867642 40.94140625 81.203125 C42.52878214 78.68024949 44.30901719 76.29713458 46.06640625 73.890625 C51.97230687 65.6769873 57.5946419 57.29207919 63.15673828 48.8425293 C66.97335852 43.06823358 70.9212333 37.42531734 75.01757812 31.84619141 C77.95219661 27.81444271 80.76256747 23.70141733 83.56640625 19.578125 C84.10007812 18.79695313 84.63375 18.01578125 85.18359375 17.2109375 C87.34761552 14.03843957 89.5086946 10.8675648 91.60449219 7.64941406 C92.40161621 6.42689941 92.40161621 6.42689941 93.21484375 5.1796875 C93.69099121 4.44057129 94.16713867 3.70145508 94.65771484 2.93994141 C95.94140625 1.203125 95.94140625 1.203125 97.94140625 0.203125 C99.45305017 0.11334772 100.96860804 0.08555067 102.48291016 0.08959961 C103.42373444 0.08967514 104.36455872 0.08975067 105.33389282 0.08982849 C106.35163788 0.09498978 107.36938293 0.10015106 108.41796875 0.10546875 C109.45835297 0.1068837 110.49873718 0.10829865 111.57064819 0.10975647 C114.90259646 0.11536634 118.2344782 0.12792053 121.56640625 0.140625 C123.82161361 0.14563873 126.07682203 0.15020186 128.33203125 0.15429688 C133.86851239 0.16533897 139.40495457 0.18208673 144.94140625 0.203125 C146.34347133 6.41677904 146.34347133 6.41677904 144.56152344 9.90185547 C143.87735352 10.74119629 143.19318359 11.58053711 142.48828125 12.4453125 C141.37549805 13.86215332 141.37549805 13.86215332 140.24023438 15.30761719 C139.10231445 16.74089355 139.10231445 16.74089355 137.94140625 18.203125 C136.63954954 20.02817586 135.35271358 21.86404607 134.08203125 23.7109375 C133.4475708 24.62584961 132.81311035 25.54076172 132.15942383 26.48339844 C131.18525513 27.89153809 131.18525513 27.89153809 130.19140625 29.328125 C125.40877997 36.22470208 120.61001344 43.10808465 115.75390625 49.953125 C111.05082351 56.58506698 106.45787179 63.28734195 101.89282227 70.01489258 C97.40881161 76.59319919 92.75479547 83.039544 87.99047852 89.41772461 C87.47412842 90.11905518 86.95777832 90.82038574 86.42578125 91.54296875 C85.96913086 92.15519287 85.51248047 92.76741699 85.04199219 93.39819336 C83.82568212 95.39290949 83.21469751 96.88029299 82.94140625 99.203125 C84.29177086 101.62850872 85.62891913 103.72945842 87.25390625 105.953125 C87.67091797 106.55511719 88.08792969 107.15710938 88.51757812 107.77734375 C89.59826657 109.29754663 90.76429187 110.7562988 91.94140625 112.203125 C92.60140625 112.203125 93.26140625 112.203125 93.94140625 112.203125 C94.09416016 113.04423828 94.09416016 113.04423828 94.25 113.90234375 C95.08883224 116.69371206 96.35796403 118.60278223 98.00390625 121.015625 C98.71933594 122.0675 99.43476562 123.119375 100.171875 124.203125 C104.40912964 130.33950592 108.67940742 136.45314845 112.94677734 142.56860352 C117.12780118 148.56794986 121.24979987 154.59821002 125.2824707 160.69799805 C128.64200369 165.77420388 132.06556058 170.80501724 135.50390625 175.828125 C136.05288574 176.6322583 136.60186523 177.4363916 137.16748047 178.26489258 C139.66872969 181.92105344 142.18520445 185.5621337 144.76953125 189.16015625 C145.19290771 189.75425293 145.61628418 190.34834961 146.05249023 190.96044922 C147.17086546 192.52449276 148.29986187 194.08092654 149.4296875 195.63671875 C150.94140625 198.203125 150.94140625 198.203125 150.94140625 202.203125 C148.53856327 203.40454649 146.97981952 203.35543065 144.2956543 203.39599609 C143.33092697 203.41205902 142.36619965 203.42812195 141.37223816 203.44467163 C136.95820788 203.48909013 132.54432841 203.530185 128.13012695 203.55322266 C125.80124929 203.56978674 123.47242256 203.59708242 121.14379883 203.63525391 C117.78830557 203.68998502 114.43400434 203.71189147 111.078125 203.7265625 C109.51852303 203.76056656 109.51852303 203.76056656 107.92741394 203.79525757 C100.69427539 203.77409656 100.69427539 203.77409656 96.93115234 200.92016602 C96.27453613 200.02354248 95.61791992 199.12691895 94.94140625 198.203125 C94.411521 197.53224854 93.88163574 196.86137207 93.33569336 196.17016602 C92.88460205 195.52233154 92.43351074 194.87449707 91.96875 194.20703125 C91.46150391 193.48322266 90.95425781 192.75941406 90.43164062 192.01367188 C89.66303711 190.90088867 89.66303711 190.90088867 88.87890625 189.765625 C88.36263672 189.02763672 87.84636719 188.28964844 87.31445312 187.52929688 C85.04533551 184.27737672 82.81923284 181.01650952 80.6953125 177.66796875 C80.11652344 176.85457031 79.53773438 176.04117188 78.94140625 175.203125 C78.28140625 175.203125 77.62140625 175.203125 76.94140625 175.203125 C76.84085938 174.64367187 76.7403125 174.08421875 76.63671875 173.5078125 C75.78679033 170.69063404 74.48319835 168.75976542 72.81640625 166.328125 C71.74132812 164.74837891 71.74132812 164.74837891 70.64453125 163.13671875 C70.22623047 162.52812012 69.80792969 161.91952148 69.37695312 161.29248047 C67.08258879 157.95316584 64.80287971 154.60386543 62.52050781 151.25634766 C61.2157347 149.34287604 59.91039428 147.42979114 58.60449219 145.51708984 C54.73392229 139.84537328 50.87923491 134.16384135 47.06640625 128.453125 C46.65600098 127.83977295 46.2455957 127.2264209 45.82275391 126.59448242 C43.06569975 122.45171199 43.06569975 122.45171199 41.94140625 120.203125 C39.61984028 119.79583272 37.28452755 119.45873823 34.94140625 119.203125 C34.94806808 120.21123734 34.95472992 121.21934967 34.96159363 122.25801086 C35.0223543 131.74895501 35.06735459 141.23985981 35.09684277 150.73095417 C35.11251249 155.61067612 35.13377456 160.49024132 35.16772461 165.36987305 C35.20027153 170.07718132 35.21824942 174.78433863 35.22603798 179.49175072 C35.23158989 181.28954636 35.24243119 183.08733354 35.25859642 184.88506508 C35.28030887 187.39922704 35.28337581 189.91276164 35.28198242 192.42700195 C35.29276825 193.17362595 35.30355408 193.92024994 35.31466675 194.6894989 C35.297212 197.59159088 35.27344431 199.68865758 33.6746521 202.16586304 C31.57351637 203.4232889 30.31220041 203.57758833 27.86889648 203.57543945 C27.05472763 203.58166824 26.24055878 203.58789703 25.40171814 203.59431458 C24.52665115 203.58510483 23.65158417 203.57589508 22.75 203.56640625 C21.39842552 203.56715401 21.39842552 203.56715401 20.01954651 203.56791687 C18.115629 203.56557698 16.21170837 203.55585345 14.30786133 203.53930664 C11.3866017 203.51568722 8.46625288 203.51874956 5.54492188 203.52539062 C3.69660912 203.51981482 1.84830022 203.51270556 0 203.50390625 C-0.87709122 203.50481766 -1.75418243 203.50572906 -2.65785217 203.50666809 C-8.8275643 203.43415445 -8.8275643 203.43415445 -11.05859375 201.203125 C-12.27754652 196.98383119 -12.19896241 192.73316472 -12.18557739 188.37767029 C-12.18713738 187.59626193 -12.18869737 186.81485356 -12.19030464 186.00976616 C-12.19428881 183.39508201 -12.191135 180.78045606 -12.18798828 178.16577148 C-12.18934345 176.28977423 -12.19112404 174.41377724 -12.19329834 172.53778076 C-12.19785853 167.44498885 -12.19608899 162.35221719 -12.19291925 157.25942492 C-12.19038875 151.93215044 -12.19273509 146.6048777 -12.19430542 141.27760315 C-12.19612493 132.33228239 -12.19372635 123.38696989 -12.18896484 114.44165039 C-12.18352098 104.09482075 -12.18528666 93.7480108 -12.19079125 83.40118164 C-12.1953266 74.52125995 -12.1959709 65.64134421 -12.19335258 56.76142174 C-12.19179235 51.45615793 -12.19158915 46.1509034 -12.19488907 40.84564018 C-12.19777394 35.8593389 -12.19578068 30.87306306 -12.18999481 25.88676453 C-12.18867061 24.05496322 -12.18905559 22.22315979 -12.19125748 20.39135933 C-12.19398222 17.89474249 -12.19057156 15.39820766 -12.18557739 12.90159607 C-12.18780811 12.17348691 -12.19003884 11.44537775 -12.19233716 10.69520468 C-12.16645078 4.04222458 -12.16645078 4.04222458 -11.05859375 1.203125 C-7.64818208 -0.50208083 -3.75325836 0.01818612 0 0 Z " fill="#17414D" transform="translate(756.05859375,415.796875)"/>
<path d="M0 0 C18.74071569 -0.04667082 37.48141962 -0.08196466 56.22218132 -0.10362434 C64.92336848 -0.11394753 73.62451958 -0.12802771 82.32568359 -0.15087891 C89.90748179 -0.17078095 97.48925388 -0.18370885 105.07107747 -0.18817699 C109.08752684 -0.19078979 113.10390151 -0.1969525 117.120327 -0.21146011 C120.89757153 -0.22499378 124.6747103 -0.22923124 128.45197678 -0.22621536 C129.84116693 -0.22676742 131.23036047 -0.23076995 132.61952972 -0.23841095 C134.51055876 -0.24830571 136.40164402 -0.2447903 138.29269409 -0.24050903 C139.35275602 -0.24235262 140.41281796 -0.24419621 141.50500298 -0.24609566 C144 0 144 0 146 2 C147.49619645 7.81324737 147.18386908 13.9130367 147.1875 19.875 C147.19974609 20.92558594 147.21199219 21.97617187 147.22460938 23.05859375 C147.23589633 29.07078003 146.75475224 34.24330293 145 40 C134.61569333 41.43309111 124.25168365 40.89442802 113.8125 40.5625 C111.98374135 40.50916593 110.15496525 40.45642672 108.32617188 40.40429688 C103.88388367 40.27638895 99.44190921 40.14043171 95 40 C95.00276538 40.82183179 95.00553076 41.64366358 95.00837994 42.49039936 C95.07457816 62.46984102 95.12425053 82.44926383 95.15543652 102.428792 C95.17091794 112.09067023 95.19203178 121.75247534 95.22631836 131.41430664 C95.25618172 139.83369214 95.27556572 148.2530247 95.28226548 156.67246169 C95.28618295 161.13219516 95.2954159 165.59177716 95.31719017 170.05146217 C95.33750701 174.24651338 95.34384359 178.44135027 95.33932304 182.636446 C95.34015041 184.17841505 95.34614468 185.72039105 95.35761642 187.26231766 C95.37248596 189.36348343 95.36897463 191.46383409 95.36076355 193.5650177 C95.36352893 194.74214734 95.36629431 195.91927698 95.36914349 197.13207722 C95 200 95 200 93.72050953 201.87891674 C90.60176024 203.91109242 86.85073604 203.40321517 83.24609375 203.36328125 C81.96110741 203.36402901 81.96110741 203.36402901 80.65016174 203.36479187 C78.84039997 203.36245239 77.03063488 203.35273121 75.22094727 203.33618164 C72.44452985 203.31255981 69.66907067 203.31562506 66.89257812 203.32226562 C65.13541092 203.31668986 63.37824777 203.30958062 61.62109375 203.30078125 C60.78775009 203.30169266 59.95440643 203.30260406 59.09580994 203.30354309 C53.23103346 203.23103346 53.23103346 203.23103346 51 201 C50.75390434 198.23950768 50.75390434 198.23950768 50.75949097 194.64730835 C50.75778212 193.98814757 50.75607327 193.32898679 50.75431263 192.64985144 C50.75100637 190.4310094 50.76203982 188.21246673 50.77294922 185.99365234 C50.77351309 184.40717069 50.77319725 182.82068851 50.77206421 181.23420715 C50.77148875 176.91830212 50.78327425 172.60250754 50.79721212 168.28662825 C50.80968734 163.77960229 50.81088744 159.272574 50.81326294 154.76553345 C50.81948717 146.22678583 50.8359107 137.68808923 50.85596192 129.14936411 C50.87829164 119.43004185 50.88930697 109.7107172 50.89935279 99.99137568 C50.92027614 79.99422195 50.95547038 59.99711418 51 40 C50.42228348 40.01474869 49.84456696 40.02949738 49.24934387 40.04469299 C43.23107711 40.19723712 37.21265824 40.34196575 31.1940918 40.48217773 C28.94860065 40.53551443 26.70315575 40.59083708 24.45776367 40.64819336 C21.22845429 40.73033682 17.99904542 40.8053138 14.76953125 40.87890625 C13.26613945 40.91945885 13.26613945 40.91945885 11.7323761 40.96083069 C10.79177841 40.98092697 9.85118073 41.00102325 8.88208008 41.02172852 C8.05823318 41.04171402 7.23438629 41.06169952 6.38557434 41.08229065 C3.83040445 40.99414978 1.48961859 40.56560449 -1 40 C-1.02470935 34.78556667 -1.04286444 29.57116739 -1.05493164 24.35668945 C-1.059962 22.58259487 -1.06678699 20.80850444 -1.07543945 19.03442383 C-1.08756174 16.48517839 -1.09324126 13.93598774 -1.09765625 11.38671875 C-1.10281754 10.59287277 -1.10797882 9.79902679 -1.11329651 8.98112488 C-1.11362877 5.72343714 -1.03772826 3.11318479 0 0 Z " fill="#16404C" transform="translate(403,416)"/>
<path d="M0 0 C0.33 0 0.66 0 1 0 C1 63.36 1 126.72 1 192 C42.58 192.495 42.58 192.495 85 193 C85 193.33 85 193.66 85 194 C74.21268989 194.02313567 63.42538564 194.04092136 52.6380558 194.05181217 C47.6294632 194.05703831 42.62088754 194.0641311 37.61230469 194.07543945 C32.78182178 194.08627786 27.95135518 194.09227887 23.12086105 194.09487724 C21.27481199 194.09672976 19.42876385 194.10034709 17.58272171 194.10573006 C15.00385839 194.11295312 12.42506315 194.1139904 9.84619141 194.11352539 C9.07727066 194.11712067 8.30834991 194.12071594 7.51612854 194.12442017 C2.22810432 194.11405216 2.22810432 194.11405216 0 193 C-1.53097451 189.15417085 -1.13251787 184.90828869 -1.11352539 180.83496094 C-1.11367142 180.0150769 -1.11381744 179.19519287 -1.1139679 178.35046387 C-1.11327218 175.64507384 -1.10549572 172.93975298 -1.09765625 170.234375 C-1.09579086 168.35679156 -1.09436753 166.47920763 -1.09336853 164.60162354 C-1.08955289 159.66311293 -1.07973071 154.72463179 -1.06866455 149.78613281 C-1.05842996 144.74544676 -1.05386652 139.70475595 -1.04882812 134.6640625 C-1.03810761 124.77602873 -1.0210426 114.88801682 -1 105 C-1.66 104.67 -2.32 104.34 -3 104 C-2.34 104 -1.68 104 -1 104 C-1.03029297 103.319375 -1.06058594 102.63875 -1.09179688 101.9375 C-1.71771671 87.45467797 -2.10671452 72.99539867 -2.125 58.5 C-2.12749756 57.80132812 -2.12999512 57.10265625 -2.13256836 56.3828125 C-2.13844153 54.39063366 -2.13580078 52.39843526 -2.1328125 50.40625 C-2.13168457 49.26478516 -2.13055664 48.12332031 -2.12939453 46.94726562 C-2.01848194 44.4209698 -1.63402895 42.42048743 -1 40 C-1.11567293 37.15444585 -1.28630148 34.33798541 -1.5 31.5 C-1.96920749 24.25492603 -1.99832416 17.12590158 -1.625 9.875 C-1.58181641 9.00423828 -1.53863281 8.13347656 -1.49414062 7.23632812 C-1.13647878 1.13647878 -1.13647878 1.13647878 0 0 Z " fill="#193137" transform="translate(571,424)"/>
<path d="M0 0 C5.10053695 0.47841648 8.54285421 2.28625717 12.6875 5.125 C13.93733247 5.9546795 15.187334 6.7841044 16.4375 7.61328125 C17.04722656 8.02271973 17.65695313 8.4321582 18.28515625 8.85400391 C20.56331648 10.37645324 22.87216676 11.84732818 25.1875 13.3125 C26.06792969 13.87195313 26.94835937 14.43140625 27.85546875 15.0078125 C31.90148814 17.57112913 35.95047165 20.12973144 40 22.6875 C40.80775879 23.19796875 41.61551758 23.7084375 42.44775391 24.234375 C46.65991768 26.89521152 50.87553365 29.55030311 55.09765625 32.1953125 C80.3812951 48.04839795 80.3812951 48.04839795 83 54 C83.62054272 58.11018294 83.58908214 61.47986856 82.078125 65.37890625 C78.86619248 69.4300467 74.69265286 71.70455393 70.3125 74.375 C69.33716309 74.982229 68.36182617 75.58945801 67.35693359 76.21508789 C65.28817758 77.50200249 63.21648184 78.78420168 61.14208984 80.06201172 C57.11211326 82.54763364 53.10156941 85.06363894 49.09033203 87.5793457 C46.10847652 89.44785404 43.12312242 91.31064583 40.13671875 93.171875 C35.88544865 95.82198181 31.63851189 98.47886021 27.39453125 101.140625 C26.31349121 101.81810791 25.23245117 102.49559082 24.11865234 103.19360352 C22.0545436 104.48735456 19.99103081 105.78205711 17.92822266 107.07788086 C15.29176957 108.72900893 12.64755931 110.36676191 10 112 C9.29762207 112.44424316 8.59524414 112.88848633 7.87158203 113.34619141 C6.00390625 114.48828125 6.00390625 114.48828125 3 116 C2.01 115.67 1.02 115.34 0 115 C0.88558594 114.47792969 1.77117187 113.95585938 2.68359375 113.41796875 C9.54645422 109.34854806 16.32496081 105.18375751 23 100.8125 C29.62336847 96.47838833 36.34755572 92.33838084 43.125 88.25 C47.08910358 85.8426983 51.04652103 83.4247079 55 81 C56.59569824 80.02281006 56.59569824 80.02281006 58.22363281 79.02587891 C61.41268411 77.05893027 64.58316448 75.06497682 67.75 73.0625 C68.73242676 72.46018555 69.71485352 71.85787109 70.72705078 71.23730469 C76.17994267 67.74753113 79.3867658 65.39966961 81 59 C80.21406209 53.30195019 78.20164938 50.76445073 74 47 C71.49334885 45.26184294 68.88240556 43.72653089 66.25 42.1875 C58.59800374 37.61386551 51.06051705 32.88432812 43.5625 28.0625 C41.42977931 26.69256539 39.29696753 25.32277259 37.1640625 23.953125 C35.61187012 22.95635742 35.61187012 22.95635742 34.02832031 21.93945312 C29.50958796 19.04548265 24.97584185 16.17559365 20.4375 13.3125 C19.69508057 12.84400635 18.95266113 12.3755127 18.18774414 11.89282227 C16.80012446 11.01818113 15.41188896 10.144516 14.02294922 9.27197266 C12.62698458 8.39422998 11.23288917 7.51350986 9.84033203 6.63037109 C9.14149902 6.18902832 8.44266602 5.74768555 7.72265625 5.29296875 C6.79271851 4.70358521 6.79271851 4.70358521 5.84399414 4.10229492 C3.93910499 2.96359844 1.99640632 1.96772894 0 1 C0 0.67 0 0.34 0 0 Z " fill="#1B717C" transform="translate(221,455)"/>
<path d="M0 0 C6.22964615 -0.02529951 12.45927912 -0.04284549 18.68896484 -0.05493164 C20.80941259 -0.05996872 22.92985685 -0.06679859 25.05029297 -0.07543945 C28.09343322 -0.08753234 31.13652766 -0.09323447 34.1796875 -0.09765625 C35.13181122 -0.10281754 36.08393494 -0.10797882 37.06491089 -0.11329651 C37.94567291 -0.11337204 38.82643494 -0.11344757 39.73388672 -0.11352539 C40.89970779 -0.11685631 40.89970779 -0.11685631 42.08908081 -0.12025452 C44 0 44 0 46 1 C46.4608288 5.57244575 45.26950232 7.54536514 42.484375 11.1171875 C41.75154297 12.07979492 41.01871094 13.04240234 40.26367188 14.03417969 C39.51666016 15.01290039 38.76964844 15.99162109 38 17 C36.70229183 18.82800302 35.41554755 20.66384557 34.140625 22.5078125 C33.50616455 23.42272461 32.8717041 24.33763672 32.21801758 25.28027344 C31.24384888 26.68841309 31.24384888 26.68841309 30.25 28.125 C25.46737372 35.02157708 20.66860719 41.90495965 15.8125 48.75 C11.11008865 55.38099524 6.52157675 62.08475595 1.95141602 68.80737305 C-2.56398002 75.42219339 -7.22600882 81.92388138 -11.95092773 88.39038086 C-12.72545288 89.45204468 -12.72545288 89.45204468 -13.515625 90.53515625 C-13.97227539 91.157854 -14.42892578 91.78055176 -14.89941406 92.42211914 C-16.06981405 94.01888419 -16.06981405 94.01888419 -17 96 C-17.99 95.67 -18.98 95.34 -20 95 C-19.67427002 94.55422607 -19.34854004 94.10845215 -19.01293945 93.64916992 C-12.12762461 84.21053581 -5.3749785 74.69893232 1.19433594 65.03759766 C5.6891561 58.43304659 10.28030397 51.90146231 14.8984375 45.3828125 C20.06505443 38.0897423 25.18633104 30.76500485 30.29833984 23.43359375 C31.9690163 21.04431069 33.64974278 18.662366 35.33203125 16.28125 C36.34665017 14.83354074 37.36098844 13.38563474 38.375 11.9375 C38.84558838 11.2767749 39.31617676 10.6160498 39.80102539 9.93530273 C42.39485126 6.32019587 42.39485126 6.32019587 43 2 C28.81 1.67 14.62 1.34 0 1 C0 0.67 0 0.34 0 0 Z " fill="#10232A" transform="translate(856,417)"/>
<path d="M0 0 C4.33961685 3.87544731 7.78611378 8.4015722 11.3125 13 C11.9091748 13.77239014 12.50584961 14.54478027 13.12060547 15.34057617 C18.66989323 22.53688337 24.17525991 29.76723156 29.66918945 37.00585938 C32.73401019 41.04220699 35.8039811 45.0658143 39 49 C39.66 48.01 40.32 47.02 41 46 C41.66 46 42.32 46 43 46 C42.34 47.65 41.68 49.3 41 51 C39.68 51 38.36 51 37 51 C34.84375 48.71875 34.84375 48.71875 32.5 45.5 C32.07203125 44.92121094 31.6440625 44.34242188 31.203125 43.74609375 C30.27749626 42.49330312 29.35711673 41.23662093 28.44140625 39.9765625 C25.99674875 36.62426793 23.4935801 33.31596081 21 30 C19.98822593 28.64847891 18.97650688 27.29691663 17.96484375 25.9453125 C13.69715966 20.25599531 9.39539741 14.59137209 5 9 C4.58169922 8.45190674 4.16339844 7.90381348 3.73242188 7.33911133 C1.29526785 4.24335422 0.26476827 3.07760449 -3.625 1.9375 C-6.87493011 1.7363042 -6.87493011 1.7363042 -8.9375 3.0625 C-10.55370625 6.00969963 -10.44116662 7.63562501 -10 11 C-8.26338258 14.14953775 -6.08420725 16.91904502 -3.875 19.75 C-3.24698486 20.57765869 -2.61896973 21.40531738 -1.97192383 22.25805664 C0.00293986 24.85127968 1.99861349 27.42720811 4 30 C5.2435091 31.60805783 6.48699925 33.2161303 7.73046875 34.82421875 C10.07136962 37.84361412 12.42147948 40.85555163 14.77734375 43.86328125 C18.93442857 49.18065463 22.98108392 54.57765291 27 60 C26.505 60.99 26.505 60.99 26 62 C23.48051213 60.74025607 22.87109368 59.44036956 21.375 57.0625 C19.22724077 53.76892664 16.99098837 50.66657164 14.5 47.625 C9.85040505 41.9182717 5.52563643 35.98391127 1.1875 30.03955078 C-5.45734208 20.6447 -5.45734208 20.6447 -13 12 C-13.47016989 7.8468326 -13.44021988 5.6982798 -11.1875 2.125 C-7.51856398 -1.43910927 -4.75200785 -1.3305622 0 0 Z " fill="#1D737D" transform="translate(201,355)"/>
<path d="M0 0 C1.28079941 0.00007553 2.56159882 0.00015106 3.88121033 0.00022888 C5.2587793 0.00533394 6.63634786 0.01054991 8.01391602 0.01586914 C9.43880666 0.01773679 10.86369796 0.01915905 12.28858948 0.02015686 C16.01872566 0.02395473 19.74882222 0.03376137 23.47894287 0.04486084 C27.29332951 0.05513398 31.10772262 0.05966707 34.92211914 0.06469727 C42.39153814 0.07538637 49.86092463 0.09242959 57.33032227 0.11352539 C57.33032227 0.77352539 57.33032227 1.43352539 57.33032227 2.11352539 C56.55517273 2.12161224 55.78002319 2.1296991 54.98138428 2.13803101 C47.62691095 2.21641897 40.27262355 2.30383727 32.91837692 2.40105247 C29.13873616 2.45070604 25.35911924 2.49703489 21.5793457 2.53540039 C17.92226161 2.57264901 14.26539369 2.61910767 10.60849762 2.6715889 C9.22291154 2.68992523 7.83727949 2.7051071 6.45162201 2.71686935 C-9.66554598 2.85839981 -24.64713581 4.46921786 -37.10717773 15.67602539 C-41.23468223 20.18521309 -43.66955607 25.54349623 -46.22436523 31.03930664 C-47.66967773 34.11352539 -47.66967773 34.11352539 -49.66967773 37.11352539 C-49.08649006 26.4217513 -43.51420129 18.21897813 -35.66967773 11.11352539 C-24.73574614 3.33158235 -13.37459177 -0.02648434 0 0 Z " fill="#217C88" transform="translate(166.669677734375,414.886474609375)"/>
<path d="M0 0 C1.30130859 -0.00580078 1.30130859 -0.00580078 2.62890625 -0.01171875 C7.15829798 -0.0048247 11.41813943 0.20440257 15.875 1.125 C15.875 1.455 15.875 1.785 15.875 2.125 C14.72902344 2.18558594 13.58304688 2.24617188 12.40234375 2.30859375 C10.87238703 2.39306989 9.34243959 2.47771427 7.8125 2.5625 C6.68424805 2.62147461 6.68424805 2.62147461 5.53320312 2.68164062 C1.97271966 2.88201415 -1.48080725 3.17644201 -5.015625 3.6875 C-8.1190486 4.12416262 -10.11614248 3.85688426 -13.125 3.125 C-14.445 3.125 -15.765 3.125 -17.125 3.125 C-17.125 17.315 -17.125 31.505 -17.125 46.125 C-3.76 46.62 -3.76 46.62 9.875 47.125 C9.875 47.785 9.875 48.445 9.875 49.125 C5.7632744 49.14965746 1.65157722 49.16783959 -2.46020508 49.17993164 C-3.85995228 49.1849708 -5.2596942 49.19180216 -6.65942383 49.20043945 C-8.66745777 49.2125232 -10.67552957 49.21769807 -12.68359375 49.22265625 C-13.89329834 49.22789307 -15.10300293 49.23312988 -16.34936523 49.23852539 C-19.125 49.125 -19.125 49.125 -20.125 48.125 C-20.22822198 46.72374663 -20.2634943 45.3173873 -20.27026367 43.91235352 C-20.27664352 43.01795059 -20.28302338 42.12354767 -20.28959656 41.20204163 C-20.29070938 40.22915695 -20.2918222 39.25627228 -20.29296875 38.25390625 C-20.29629715 37.26124252 -20.29962555 36.2685788 -20.30305481 35.24583435 C-20.3081284 33.1416775 -20.310463 31.03751257 -20.31030273 28.93334961 C-20.3124883 25.70478117 -20.33063699 22.47655473 -20.34960938 19.24804688 C-20.35254332 17.20833451 -20.35452811 15.16862051 -20.35546875 13.12890625 C-20.36265427 12.15804581 -20.36983978 11.18718536 -20.37724304 10.18690491 C-20.37416641 9.28934982 -20.37108978 8.39179474 -20.36791992 7.46704102 C-20.36934494 6.67507828 -20.37076996 5.88311554 -20.37223816 5.06715393 C-20.125 3.125 -20.125 3.125 -18.125 1.125 C-12.08320028 0.05720989 -6.1226197 -0.02753802 0 0 Z " fill="#061418" transform="translate(634.125,451.875)"/>
<path d="M0 0 C0.66 0.33 1.32 0.66 2 1 C1.47792969 1.680625 0.95585938 2.36125 0.41796875 3.0625 C-6.00539541 11.52199185 -12.02924231 20.21732584 -18 29 C-19.21587402 30.78403945 -20.43203366 32.56788426 -21.6484375 34.3515625 C-23.58088188 37.18546887 -25.51324372 40.01943089 -27.44506836 42.85375977 C-37.5451514 57.67158555 -37.5451514 57.67158555 -42.61572266 64.9921875 C-44.14275987 67.20706476 -45.65474477 69.43191594 -47.16796875 71.65625 C-48.23646622 73.20868651 -49.30546536 74.76077786 -50.375 76.3125 C-51.10722778 77.39881714 -51.10722778 77.39881714 -51.85424805 78.50708008 C-54.51105 82.33300286 -56.67549412 84.94782539 -61 87 C-60.67 86.01 -60.34 85.02 -60 84 C-59.34 84 -58.68 84 -58 84 C-57.77570312 83.32582031 -57.55140625 82.65164063 -57.3203125 81.95703125 C-55.62217012 78.15379522 -53.32412354 75.04124755 -50.875 71.6875 C-44.96909938 63.4738623 -39.34676435 55.08895419 -33.78466797 46.6394043 C-29.96976684 40.86770947 -26.02301476 35.2282305 -21.92822266 29.65185547 C-18.96654233 25.57870129 -16.13817816 21.41813279 -13.3125 17.25 C-11.21485783 14.162151 -9.11236388 11.07779905 -7 8 C-6.5261084 7.30712891 -6.0522168 6.61425781 -5.56396484 5.90039062 C-2.23530633 1.11765317 -2.23530633 1.11765317 0 0 Z " fill="#11272D" transform="translate(853,418)"/>
<path d="M0 0 C2.94385102 0.31512329 3.86080875 0.83397715 5.79589844 3.14208984 C6.3943457 4.07230957 6.99279297 5.0025293 7.609375 5.9609375 C8.28226563 6.99089844 8.95515625 8.02085937 9.6484375 9.08203125 C10.68871094 10.71205078 10.68871094 10.71205078 11.75 12.375 C13.11741713 14.48851735 14.48720228 16.60050455 15.859375 18.7109375 C16.53726074 19.75427246 17.21514648 20.79760742 17.91357422 21.87255859 C20.59787935 25.89618938 23.43008318 29.79699661 26.30810547 33.68359375 C27.73057318 35.63112241 29.07165428 37.59717384 30.375 39.625 C31.78146068 42.09308156 31.78146068 42.09308156 34 43 C35.50088568 43.0947561 37.00589248 43.12794334 38.50976562 43.12939453 C39.44413452 43.13254669 40.37850342 43.13569885 41.34118652 43.13894653 C42.35265747 43.1369223 43.36412842 43.13489807 44.40625 43.1328125 C45.9597113 43.13424759 45.9597113 43.13424759 47.54455566 43.13571167 C49.7368984 43.13639298 51.92924315 43.13454209 54.12158203 43.13037109 C57.4860485 43.12502218 60.85038146 43.13031775 64.21484375 43.13671875 C66.34114613 43.13605796 68.46744843 43.13477678 70.59375 43.1328125 C72.11095642 43.13584885 72.11095642 43.13584885 73.65881348 43.13894653 C75.06036682 43.13421829 75.06036682 43.13421829 76.49023438 43.12939453 C77.31471069 43.12859894 78.13918701 43.12780334 78.98864746 43.12698364 C81.07150581 43.12673414 81.07150581 43.12673414 83 42 C82.67 43.32 82.34 44.64 82 46 C75.11340009 46.126851 68.22710177 46.21437266 61.33959961 46.2746582 C58.99703716 46.29979125 56.65455305 46.33390308 54.31225586 46.37719727 C50.94365101 46.43789928 47.57608351 46.46622251 44.20703125 46.48828125 C42.63801811 46.52699089 42.63801811 46.52699089 41.03730774 46.56648254 C33.75246932 46.56928802 33.75246932 46.56928802 29.98535156 43.71923828 C29.33018555 42.82188965 28.67501953 41.92454102 28 41 C27.47011475 40.32912354 26.94022949 39.65824707 26.39428711 38.96704102 C25.71765015 37.99528931 25.71765015 37.99528931 25.02734375 37.00390625 C24.52009766 36.28009766 24.01285156 35.55628906 23.49023438 34.81054688 C22.97783203 34.06869141 22.46542969 33.32683594 21.9375 32.5625 C21.1630957 31.45551758 21.1630957 31.45551758 20.37304688 30.32617188 C18.10392926 27.07425172 15.87782659 23.81338452 13.75390625 20.46484375 C13.17511719 19.65144531 12.59632813 18.83804688 12 18 C11.34 18 10.68 18 10 18 C9.9175 17.46632813 9.835 16.93265625 9.75 16.3828125 C8.72246354 13.11824353 6.93624961 10.68947711 5 7.875 C1.05960265 2.1192053 1.05960265 2.1192053 0 0 Z " fill="#12282E" transform="translate(823,573)"/>
<path d="M0 0 C3.80200066 1.26733355 4.40617682 2.75117001 6.5625 6.0625 C7.65799524 7.74225938 8.79349556 9.39811098 10 11 C10.66 11 11.32 11 12 11 C12.10183594 11.56074219 12.20367188 12.12148438 12.30859375 12.69921875 C13.14742599 15.49058706 14.41655778 17.39965723 16.0625 19.8125 C16.77792969 20.864375 17.49335937 21.91625 18.23046875 23 C22.46564501 29.13337101 26.73412212 35.24380173 30.9987793 41.35668945 C35.63724323 48.013569 40.2097101 54.70564103 44.66796875 61.484375 C46.36486601 64.06160643 48.10409414 66.60551597 49.86328125 69.140625 C50.33523926 69.82769531 50.80719727 70.51476562 51.29345703 71.22265625 C52.20163493 72.54341094 53.11762422 73.85883889 54.04248047 75.16796875 C55.10754536 76.72739096 56.06420982 78.35973856 57 80 C56.505 81.485 56.505 81.485 56 83 C40.38599281 60.67307544 40.38599281 60.67307544 35 52.5 C29.46458642 44.10679045 23.68348016 35.88487544 17.9296875 27.640625 C14.04388038 22.07115667 10.19196246 16.47904041 6.36157227 10.87133789 C4.69378034 8.43497213 3.02236726 6.02870221 1.20703125 3.69921875 C0 2 0 2 0 0 Z " fill="#10252B" transform="translate(838,517)"/>
<path d="M0 0 C0.33 0.66 0.66 1.32 1 2 C-2.63 6.95 -6.26 11.9 -10 17 C-7.92662354 17.01981934 -5.85324707 17.03963867 -3.71704102 17.06005859 C3.16017523 17.12719083 10.03724468 17.20482605 16.91429043 17.28752708 C21.08076637 17.3373132 25.2472191 17.38364368 29.41381836 17.421875 C33.4404597 17.45895263 37.46689813 17.50537112 41.49336433 17.55806351 C43.02377803 17.57648878 44.55423503 17.59163974 46.08471489 17.60334396 C53.94952712 17.66560132 61.37882756 17.87159809 69 20 C69 20.33 69 20.66 69 21 C41.94 20.67 14.88 20.34 -13 20 C-13 16.53755953 -12.45388496 15.91120896 -10.41015625 13.2421875 C-9.87326172 12.53449219 -9.33636719 11.82679688 -8.78320312 11.09765625 C-8.21537109 10.36417969 -7.64753906 9.63070313 -7.0625 8.875 C-6.49853516 8.13378906 -5.93457031 7.39257812 -5.35351562 6.62890625 C-1.24173504 1.24173504 -1.24173504 1.24173504 0 0 Z " fill="#207A86" transform="translate(266,397)"/>
<path d="M0 0 C0.90720795 0.00141495 1.81441589 0.0028299 2.74911499 0.00428772 C5.65308905 0.00989529 8.55698665 0.02244907 11.4609375 0.03515625 C13.42708222 0.04017027 15.39322815 0.04473335 17.359375 0.04882812 C22.1849254 0.05986719 27.01041847 0.0771369 31.8359375 0.09765625 C31.8359375 0.42765625 31.8359375 0.75765625 31.8359375 1.09765625 C30.79139404 1.11747559 29.74685059 1.13729492 28.6706543 1.15771484 C24.795897 1.23377739 20.92151493 1.32249353 17.04711914 1.41503906 C15.37011116 1.45332618 13.69302112 1.48817956 12.01586914 1.51953125 C9.60533318 1.56518804 7.19536193 1.62318035 4.78515625 1.68359375 C3.66000862 1.70092056 3.66000862 1.70092056 2.51213074 1.71859741 C-1.22533963 1.82461084 -2.97834873 1.97384707 -6.1640625 4.09765625 C-6.8240625 4.09765625 -7.4840625 4.09765625 -8.1640625 4.09765625 C-8.1640625 35.44765625 -8.1640625 66.79765625 -8.1640625 99.09765625 C-8.4940625 99.09765625 -8.8240625 99.09765625 -9.1640625 99.09765625 C-9.1795237 98.11882729 -9.1795237 98.11882729 -9.19529724 97.120224 C-9.3278336 88.75848735 -9.46344963 80.39680263 -9.6015625 72.03515625 C-9.61258373 71.36778316 -9.62360497 70.70041008 -9.63496017 70.01281357 C-10.01555012 47.03742301 -10.50440532 24.0668767 -11.1640625 1.09765625 C-7.72801485 -0.62036757 -3.77967354 -0.02200555 0 0 Z " fill="#1D4D59" transform="translate(756.1640625,415.90234375)"/>
<path d="M0 0 C2.18590685 -0.00218931 4.37131113 -0.02036584 6.55712891 -0.03930664 C7.9464501 -0.04224028 9.33577369 -0.04422527 10.72509766 -0.04516602 C11.98902344 -0.0492749 13.25294922 -0.05338379 14.55517578 -0.05761719 C17.69384766 0.18530273 17.69384766 0.18530273 20.69384766 2.18530273 C9.47384766 2.51530273 -1.74615234 2.84530273 -13.30615234 3.18530273 C-13.29455078 6.47112305 -13.28294922 9.75694336 -13.27099609 13.14233398 C-13.26320066 16.31949772 -13.25712666 19.49666039 -13.2512207 22.67382812 C-13.24618735 24.88444494 -13.23936018 27.09505843 -13.23071289 29.30566406 C-13.21860375 32.48039574 -13.21291409 35.65508346 -13.20849609 38.82983398 C-13.20333481 39.82054398 -13.19817352 40.81125397 -13.19285583 41.83198547 C-13.1927803 42.75271347 -13.19270477 43.67344147 -13.19262695 44.62207031 C-13.19040634 45.43259354 -13.18818573 46.24311676 -13.18589783 47.07820129 C-13.30615234 49.18530273 -13.30615234 49.18530273 -14.30615234 52.18530273 C-14.96615234 52.18530273 -15.62615234 52.18530273 -16.30615234 52.18530273 C-16.30615234 35.35530273 -16.30615234 18.52530273 -16.30615234 1.18530273 C-11.08390228 -0.55544729 -5.46791821 -0.00061534 0 0 Z " fill="#07181E" transform="translate(630.30615234375,530.814697265625)"/>
<path d="M0 0 C0.33 0 0.66 0 1 0 C1 31.35 1 62.7 1 95 C0.67 95 0.34 95 0 95 C-0.01030746 94.35314743 -0.02061493 93.70629486 -0.03123474 93.0398407 C-0.1407823 86.20820954 -0.25522779 79.37667202 -0.37231445 72.54516602 C-0.41519634 70.00742584 -0.45689605 67.46966537 -0.49731445 64.93188477 C-0.69915882 52.30539854 -0.94477279 39.70660103 -1.695755 27.09980774 C-2.02489548 21.32165853 -2.00163126 15.64687399 -1.625 9.875 C-1.58117187 9.01519531 -1.53734375 8.15539062 -1.4921875 7.26953125 C-1.14263393 1.14263393 -1.14263393 1.14263393 0 0 Z " fill="#0F1F23" transform="translate(571,424)"/>
<path d="M0 0 C0 12 0 24 0 36 C16.83 36.33 33.66 36.66 51 37 C51 37.33 51 37.66 51 38 C35.16 38 19.32 38 3 38 C2.67 38.66 2.34 39.32 2 40 C0.35 39.67 -1.3 39.34 -3 39 C-3.07403712 33.76728431 -3.12854783 28.53487199 -3.16479492 23.30175781 C-3.17990173 21.52077933 -3.20038835 19.73983816 -3.22631836 17.95898438 C-3.26261943 15.40225022 -3.27970688 12.8460069 -3.29296875 10.2890625 C-3.30845261 9.49005524 -3.32393646 8.69104797 -3.33988953 7.86782837 C-3.34057617 5.62353516 -3.34057617 5.62353516 -3 2 C-2.01 1.34 -1.02 0.68 0 0 Z " fill="#16363E" transform="translate(405,417)"/>
<path d="M0 0 C0.66 0 1.32 0 2 0 C3.28310892 5.93309565 3.18382228 11.8361895 3.1875 17.875 C3.19974609 18.92558594 3.21199219 19.97617187 3.22460938 21.05859375 C3.22654297 22.08855469 3.22847656 23.11851562 3.23046875 24.1796875 C3.23457764 25.10507324 3.23868652 26.03045898 3.24291992 26.98388672 C3 30 3 30 1 38 C-16.16 37.67 -33.32 37.34 -51 37 C-51 36.67 -51 36.34 -51 36 C-34.17 36 -17.34 36 0 36 C0 24.12 0 12.24 0 0 Z " fill="#0F2931" transform="translate(547,418)"/>
<path d="M0 0 C5.82071622 -0.02464638 11.64140234 -0.0428343 17.4621582 -0.05493164 C19.44393441 -0.05997267 21.42570689 -0.06680538 23.4074707 -0.07543945 C26.24952109 -0.08751515 29.09152247 -0.09323045 31.93359375 -0.09765625 C32.82525742 -0.10281754 33.71692108 -0.10797882 34.63560486 -0.11329651 C36.75740601 -0.11349177 38.8791078 -0.0621003 41 0 C42.78857062 1.78857062 42.11990579 4.20123134 42.12442017 6.58209229 C42.11902725 7.78294464 42.11902725 7.78294464 42.11352539 9.00805664 C42.11367142 9.84700974 42.11381744 10.68596283 42.1139679 11.55033875 C42.1132685 14.33697044 42.10547485 17.12353616 42.09765625 19.91015625 C42.09579217 21.83686791 42.09436822 23.76358005 42.09336853 25.69029236 C42.08954259 30.77187397 42.07971166 35.8534272 42.06866455 40.93499756 C42.05845206 46.11616634 42.05387126 51.29733969 42.04882812 56.47851562 C42.03808946 66.65235625 42.02101213 76.82617577 42 87 C41.67 87 41.34 87 41 87 C40.98969254 85.94986221 40.97938507 84.89972443 40.96876526 83.81776428 C40.87120459 73.9434829 40.76848742 64.06926698 40.66066074 54.1950922 C40.60538726 49.11812116 40.55196033 44.04114441 40.50268555 38.96411133 C40.45510709 34.06874337 40.40276692 29.17344779 40.34705925 24.27816582 C40.32660605 22.40619129 40.30789799 20.5341969 40.29092598 18.66218758 C40.26694732 16.04953924 40.23688426 13.43702903 40.20532227 10.82446289 C40.19668907 9.65166275 40.19668907 9.65166275 40.18788147 8.45516968 C40.45906574 4.93323772 40.45906574 4.93323772 39 2 C36.11747355 1.83976438 33.25621473 1.74045971 30.37109375 1.68359375 C29.07474754 1.6524221 29.07474754 1.6524221 27.75221252 1.62062073 C24.98072555 1.55502886 22.20914079 1.49619582 19.4375 1.4375 C17.56314077 1.39432392 15.68879157 1.35070994 13.81445312 1.30664062 C9.20973664 1.19933773 4.60492142 1.09809785 0 1 C0 0.67 0 0.34 0 0 Z " fill="#000407" transform="translate(748,417)"/>
<path d="M0 0 C6.22964615 -0.02529951 12.45927912 -0.04284549 18.68896484 -0.05493164 C20.80941259 -0.05996872 22.92985685 -0.06679859 25.05029297 -0.07543945 C28.09343322 -0.08753234 31.13652766 -0.09323447 34.1796875 -0.09765625 C35.13181122 -0.10281754 36.08393494 -0.10797882 37.06491089 -0.11329651 C37.94567291 -0.11337204 38.82643494 -0.11344757 39.73388672 -0.11352539 C40.89970779 -0.11685631 40.89970779 -0.11685631 42.08908081 -0.12025452 C44 0 44 0 46 1 C46.39402706 5.37292775 45.50561757 7.21556869 42.8125 10.625 C38.68863057 16.02689744 34.82135293 21.5674029 31 27.1875 C30.4119458 28.05004395 29.8238916 28.91258789 29.21801758 29.80126953 C27.81053687 31.86651552 26.40453416 33.93274951 25 36 C24.38916016 34.18725586 24.38916016 34.18725586 24 32 C25.37123844 29.68339233 26.74158245 27.68020742 28.375 25.5625 C29.29765374 24.31828544 30.21950988 23.07347907 31.140625 21.828125 C31.61435547 21.19583984 32.08808594 20.56355469 32.57617188 19.91210938 C34.80900124 16.91356349 36.97570388 13.87124817 39.125 10.8125 C39.87007812 9.76707031 40.61515625 8.72164063 41.3828125 7.64453125 C43.26085242 5.09007249 43.26085242 5.09007249 43 2 C28.81 1.67 14.62 1.34 0 1 C0 0.67 0 0.34 0 0 Z " fill="#0C1A1F" transform="translate(856,417)"/>
<path d="M0 0 C0.33 0 0.66 0 1 0 C1.15359722 8.58796706 1.30177886 17.17600286 1.4429636 25.76418209 C1.50868668 29.75161305 1.57630563 33.7389934 1.64819336 37.72631836 C1.71744398 41.57118429 1.7817982 45.41610331 1.84269524 49.26111031 C1.86685154 50.73121705 1.8928002 52.20129543 1.92053413 53.67133904 C1.95894963 55.72347446 1.99110609 57.77561649 2.02172852 59.82788086 C2.04171402 60.99814316 2.06169952 62.16840546 2.08229065 63.37413025 C2 66 2 66 1 67 C-1.8843382 67.08865208 -4.74462158 67.11521296 -7.62890625 67.09765625 C-8.92525246 67.09553383 -8.92525246 67.09553383 -10.24778748 67.09336853 C-13.01939292 67.08775239 -15.7909188 67.07519719 -18.5625 67.0625 C-20.4368478 67.05748708 -22.31119685 67.05292381 -24.18554688 67.04882812 C-28.79039544 67.03777772 -33.39518421 67.0205023 -38 67 C-38 66.67 -38 66.34 -38 66 C-25.46 65.67 -12.92 65.34 0 65 C0 43.55 0 22.1 0 0 Z " fill="#0E272F" transform="translate(495,551)"/>
<path d="M0 0 C0.495 1.485 0.495 1.485 1 3 C0 4 0 4 -1.98048401 4.12025452 C-2.84874313 4.11803391 -3.71700226 4.11581329 -4.61157227 4.11352539 C-5.59251358 4.11344986 -6.5734549 4.11337433 -7.5841217 4.11329651 C-8.6507756 4.10813522 -9.7174295 4.10297394 -10.81640625 4.09765625 C-12.44569313 4.09553383 -12.44569313 4.09553383 -14.1078949 4.09336853 C-17.59279075 4.08775048 -21.07762342 4.07519492 -24.5625 4.0625 C-26.91861887 4.05748733 -29.27473874 4.05292402 -31.63085938 4.04882812 C-37.42059464 4.03777519 -43.21029281 4.02101951 -49 4 C-49.33 3.01 -49.66 2.02 -50 1 C-49.08251732 1.00333092 -49.08251732 1.00333092 -48.14649963 1.00672913 C-41.80429669 1.02878122 -35.46210456 1.04390627 -29.11987305 1.05493164 C-26.75007688 1.05997341 -24.38028385 1.06680665 -22.01049805 1.07543945 C-18.61245961 1.0875119 -15.21446215 1.09322971 -11.81640625 1.09765625 C-10.74975235 1.10281754 -9.68309845 1.10797882 -8.5841217 1.11329651 C-7.60318039 1.11337204 -6.62223907 1.11344757 -5.61157227 1.11352539 C-4.74331314 1.115746 -3.87505402 1.11796661 -2.98048401 1.12025452 C-0.99856319 1.21954667 -0.99856319 1.21954667 0 0 Z " fill="#1D3136" transform="translate(905,615)"/>
<path d="M0 0 C10.39867362 0.67817437 19.16577951 6.33202988 26 14 C30.56139872 20.3585727 33.84783291 26.08731133 34 34 C32.35091456 31.52637184 31.34485547 29.52562869 30.25 26.8125 C25.09865121 15.10316105 17.03075545 8.65918912 5.671875 3.296875 C3 2 3 2 0 0 Z " fill="#1D6F79" transform="translate(336,418)"/>
<path d="M0 0 C1.18797432 0.00212242 1.18797432 0.00212242 2.39994812 0.00428772 C4.91641094 0.00986168 7.43278306 0.02240932 9.94921875 0.03515625 C11.660806 0.04017462 13.37239466 0.04473694 15.08398438 0.04882812 C19.26826383 0.05982257 23.45247594 0.07706918 27.63671875 0.09765625 C20.4422683 4.09457317 12.57127727 3.28111529 4.57421875 3.28515625 C3.29482422 3.29740234 2.01542969 3.30964844 0.69726562 3.32226562 C-0.53056641 3.32419922 -1.75839844 3.32613281 -3.0234375 3.328125 C-4.70385132 3.33428833 -4.70385132 3.33428833 -6.41821289 3.34057617 C-9.28838966 3.10383358 -10.93557472 2.58961108 -13.36328125 1.09765625 C-8.91000488 -0.0147006 -4.55879352 -0.03089246 0 0 Z " fill="#102D36" transform="translate(630.36328125,581.90234375)"/>
<path d="M0 0 C-0.70125 0.3403125 -1.4025 0.680625 -2.125 1.03125 C-13.60771993 6.89742214 -19.22355671 13.45765107 -24.5546875 24.92578125 C-26 28 -26 28 -28 31 C-27.41307248 20.23966216 -21.79288888 12.22564221 -14 5 C-4.81830723 -1.83449312 -4.81830723 -1.83449312 0 0 Z " fill="#1C6E78" transform="translate(145,421)"/>
<path d="M0 0 C6.19095055 1.87604562 11.13788829 6.02804489 14.4375 11.5625 C16.89845725 17.01251692 16.68766152 23.15487709 16 29 C15.34 29.99 14.68 30.98 14 32 C13.96261719 31.0821875 13.92523437 30.164375 13.88671875 29.21875 C13.6493651 17.89142426 13.6493651 17.89142426 8.3515625 8.29296875 C7.17002056 7.26846719 5.96062445 6.27468845 4.71875 5.32421875 C2.98947286 3.99188931 1.47644846 2.60698811 0 1 C0 0.67 0 0.34 0 0 Z " fill="#10252A" transform="translate(660,535)"/>
<path d="M0 0 C1.30130859 -0.00580078 1.30130859 -0.00580078 2.62890625 -0.01171875 C7.15829798 -0.0048247 11.41813943 0.20440257 15.875 1.125 C15.875 1.455 15.875 1.785 15.875 2.125 C14.72902344 2.18558594 13.58304688 2.24617188 12.40234375 2.30859375 C10.87238703 2.39306989 9.34243959 2.47771427 7.8125 2.5625 C6.68424805 2.62147461 6.68424805 2.62147461 5.53320312 2.68164062 C1.96930802 2.88220615 -1.48544209 3.17736884 -5.0234375 3.69140625 C-8.13758717 4.12675967 -10.09027968 3.74750673 -13.125 3.125 C-16.34611592 3.50833662 -16.34611592 3.50833662 -19.125 4.125 C-18.795 3.135 -18.465 2.145 -18.125 1.125 C-12.04308681 0.23599645 -6.14224597 -0.02762629 0 0 Z " fill="#11282E" transform="translate(634.125,451.875)"/>
<path d="M0 0 C0.33 0 0.66 0 1 0 C1.16755313 6.0687668 1.32811943 12.13766271 1.48217773 18.20678711 C1.53558831 20.27194204 1.59091695 22.33704828 1.64819336 24.40209961 C1.73013039 27.36822002 1.80519629 30.33444641 1.87890625 33.30078125 C1.90594131 34.2258699 1.93297638 35.15095856 1.96083069 36.1040802 C1.98092697 36.96474594 2.00102325 37.82541168 2.02172852 38.7121582 C2.05170677 39.84800102 2.05170677 39.84800102 2.08229065 41.00679016 C2 43 2 43 1 46 C0.34 46 -0.32 46 -1 46 C-1.1396286 30.63440999 -0.80661707 15.34503163 0 0 Z " fill="#000707" transform="translate(615,537)"/>
<path d="M0 0 C0.33 0 0.66 0 1 0 C2.01335448 8.95129794 -2.21635723 15.05650608 -7.25 22.1875 C-8.11625 23.0846875 -8.11625 23.0846875 -9 24 C-9.66 24 -10.32 24 -11 24 C-10.71125 23.43152344 -10.4225 22.86304688 -10.125 22.27734375 C-7.50258463 16.96877375 -5.13725824 11.52125046 -3 6 C-2.34 6 -1.68 6 -1 6 C-0.67 4.02 -0.34 2.04 0 0 Z " fill="#123039" transform="translate(714,480)"/>
<path d="M0 0 C6.81946249 2.78562865 11.37355807 10.20462818 14.5 16.625 C16.23266947 20.88827884 16.33177391 24.43810873 16 29 C14.34679644 25.85068462 13.083871 22.63194989 11.8125 19.3125 C9.69949968 14.16206172 7.15637268 10.15868021 3.55078125 5.9375 C2.02969868 4.03710465 1.001654 2.21054676 0 0 Z " fill="#0F2329" transform="translate(699,433)"/>
<path d="M0 0 C0.33 0 0.66 0 1 0 C1.82049784 6.23578362 -0.73154992 10.88092066 -4 16 C-6.84477905 19.49175222 -9.85396298 22.77856775 -13 26 C-13.99 25.67 -14.98 25.34 -16 25 C-15.34644531 24.41605469 -15.34644531 24.41605469 -14.6796875 23.8203125 C-7.4973093 17.07322995 -3.09983123 9.29949369 0 0 Z " fill="#10252B" transform="translate(720,576)"/>
<path d="M0 0 C1.875 0.625 1.875 0.625 4 2 C5.31640625 4.75 5.31640625 4.75 6 8 C4.91015625 10.7109375 4.91015625 10.7109375 3.0625 13.375 C2.4128125 14.31730469 1.763125 15.25960938 1.09375 16.23046875 C-1.75449002 19.99801012 -4.76076591 23.56385198 -8 27 C-8 22.35915443 -4.51986032 19.53158525 -1.5546875 16.17773438 C1.01534521 13.06065185 2.33227887 10.86816118 2.4375 6.76171875 C2.28069357 2.92827096 2.28069357 2.92827096 0 0 Z " fill="#1A6C76" transform="translate(287,356)"/>
<path d="M0 0 C2.99554788 4.49332183 3.18278973 7.52287135 3.1875 12.8125 C3.19974609 13.52470703 3.21199219 14.23691406 3.22460938 14.97070312 C3.23607389 19.1017489 2.84522492 22.28767002 1 26 C0.67 26 0.34 26 0 26 C0 17.42 0 8.84 0 0 Z " fill="#112429" transform="translate(721,549)"/>
<path d="M0 0 C0 0.66 0 1.32 0 2 C-1.03253906 2.19335938 -2.06507813 2.38671875 -3.12890625 2.5859375 C-7.81403303 3.92454515 -10.04179928 6.87620902 -12.9375 10.625 C-13.43056641 11.23601562 -13.92363281 11.84703125 -14.43164062 12.4765625 C-15.63563541 13.97278903 -16.81989683 15.4848585 -18 17 C-18 13.00052878 -16.07832729 10.98476221 -13.75 7.9375 C-13.35425781 7.39544922 -12.95851563 6.85339844 -12.55078125 6.29492188 C-8.80499789 1.32715345 -6.19801192 -0.344334 0 0 Z " fill="#1E737C" transform="translate(286,354)"/>
<path d="M0 0 C2 1 2 1 3.4375 3.9375 C4.79632842 7.21743175 4.79632842 7.21743175 8 9 C10.27538323 9.66613335 10.27538323 9.66613335 12.6875 10.125 C13.89986328 10.37636719 13.89986328 10.37636719 15.13671875 10.6328125 C15.75160156 10.75398437 16.36648437 10.87515625 17 11 C16.34 11.66 15.68 12.32 15 13 C10.34441544 12.84450896 6.70277517 11.52708138 3 8.75 C0.79732112 5.72131653 0.25826106 3.70174192 0 0 Z " fill="#1A737D" transform="translate(203,560)"/>
<path d="M0 0 C4.49582409 1.80601481 5.83554698 4.5189712 8.02734375 8.66796875 C9.23336785 11.55952051 9.39707561 13.90281025 9 17 C7.14889683 14.22334525 5.53814981 11.42600358 3.9375 8.5 C3.41027344 7.5409375 2.88304687 6.581875 2.33984375 5.59375 C1 3 1 3 0 0 Z " fill="#11272E" transform="translate(712,531)"/>
<path d="M0 0 C4.32233741 3.26576604 7.26601668 5.70171762 9 11 C9.23127172 15.01384923 9.17541905 18.9848528 9 23 C8.67 23 8.34 23 8 23 C7.98582031 22.38253906 7.97164062 21.76507813 7.95703125 21.12890625 C7.58128261 14.45682904 5.9708413 9.43052751 2 4 C1.34 3.67 0.68 3.34 0 3 C0 2.01 0 1.02 0 0 Z " fill="#0A181C" transform="translate(663,459)"/>
<path d="M0 0 C-1.29568481 3.88705443 -2.70483272 4.26799098 -6.25 6.1875 C-7.20390625 6.71730469 -8.1578125 7.24710938 -9.140625 7.79296875 C-12.04140757 9.01747942 -13.89412264 9.25504467 -17 9 C-15.60824005 6.21648011 -14.07312148 6.11450549 -11.1875 5.0625 C-7.55157029 3.73594957 -3.64016766 0 0 0 Z " fill="#12262C" transform="translate(703,603)"/>
<path d="M0 0 C3.36696339 0.61012088 5.38873035 1.83042527 8.0625 3.9375 C10.3442809 5.72000446 12.58629852 7.39086568 15 9 C14.67 9.99 14.34 10.98 14 12 C13.32453125 11.44570313 12.6490625 10.89140625 11.953125 10.3203125 C11.06109375 9.59585938 10.1690625 8.87140625 9.25 8.125 C8.36828125 7.40570312 7.4865625 6.68640625 6.578125 5.9453125 C4.41823076 4.31557412 2.460234 3.09215995 0 2 C0 1.34 0 0.68 0 0 Z " fill="#11252C" transform="translate(696,518)"/>
<path d="M0 0 C0.93134766 0.04833984 1.86269531 0.09667969 2.82226562 0.14648438 C3.78197266 0.20255859 4.74167969 0.25863281 5.73046875 0.31640625 C6.70951172 0.36861328 7.68855469 0.42082031 8.69726562 0.47460938 C11.10452965 0.60377964 13.51132513 0.73872268 15.91796875 0.87890625 C15.91796875 1.20890625 15.91796875 1.53890625 15.91796875 1.87890625 C12.33553085 2.10515607 8.75211774 2.30677806 5.16796875 2.50390625 C4.1521875 2.56835938 3.13640625 2.6328125 2.08984375 2.69921875 C0.6203125 2.7765625 0.6203125 2.7765625 -0.87890625 2.85546875 C-1.77963867 2.90783691 -2.68037109 2.96020508 -3.60839844 3.01416016 C-6.27120072 2.86856279 -7.81275604 2.2358402 -10.08203125 0.87890625 C-6.60503662 0.07023953 -3.56040681 -0.19658688 0 0 Z " fill="#09181D" transform="translate(627.08203125,582.12109375)"/>
<path d="M0 0 C0 0.66 0 1.32 0 2 C-4.85596901 6.05214647 -9.83863419 8.6890711 -16 10 C-16 9.01 -16 8.02 -16 7 C-15.175 6.773125 -14.35 6.54625 -13.5 6.3125 C-9.84694529 4.94260448 -6.95727447 3.18452901 -3.734375 1.0234375 C-2 0 -2 0 0 0 Z " fill="#10272D" transform="translate(702,505)"/>
<path d="M0 0 C5.17226615 4.6873662 8.98925493 10.31728181 13 16 C12.67 16.66 12.34 17.32 12 18 C0 3.26213592 0 3.26213592 0 0 Z " fill="#1A6C76" transform="translate(198,377)"/>
<path d="M0 0 C3.5667949 1.44536787 5.18530899 3.19740946 7.3125 6.375 C7.84488281 7.14585937 8.37726562 7.91671875 8.92578125 8.7109375 C10 11 10 11 9.66796875 13.2890625 C9.44753906 13.85367188 9.22710938 14.41828125 9 15 C9 14.01 9 13.02 9 12 C8.01 11.67 7.02 11.34 6 11 C4.39453125 9.00390625 4.39453125 9.00390625 2.8125 6.5625 C2.28269531 5.75941406 1.75289062 4.95632813 1.20703125 4.12890625 C0 2 0 2 0 0 Z " fill="#13292E" transform="translate(897,603)"/>
<path d="M0 0 C0.33 0.66 0.66 1.32 1 2 C0.09373216 3.2989839 -0.82549537 4.58893167 -1.75 5.875 C-2.51570312 6.95394531 -2.51570312 6.95394531 -3.296875 8.0546875 C-5.07503547 10.08570565 -6.52701607 10.97855012 -9 12 C-9 10.68 -9 9.36 -9 8 C-7.35666496 6.96210419 -5.68756133 5.96432076 -4 5 C-2.80767387 2.94996045 -2.80767387 2.94996045 -2 1 C-1.34 0.67 -0.68 0.34 0 0 Z " fill="#10252B" transform="translate(673,568)"/>
<path d="M0 0 C0.671875 1.70703125 0.671875 1.70703125 1 4 C-0.109375 6.32421875 -0.109375 6.32421875 -1.75 8.6875 C-2.28109375 9.47511719 -2.8121875 10.26273437 -3.359375 11.07421875 C-5 13 -5 13 -8 14 C-6.46162154 10.80375738 -4.71133468 7.78394426 -2.875 4.75 C-2.33617187 3.85796875 -1.79734375 2.9659375 -1.2421875 2.046875 C-0.62730469 1.03367187 -0.62730469 1.03367187 0 0 Z " fill="#11242B" transform="translate(711,490)"/>
<path d="M0 0 C-1.99164099 1.01587057 -3.9749231 1.98941091 -6.03515625 2.859375 C-9.94906114 4.57877831 -11.68954085 5.49550388 -14 9.25 C-14.33 10.1575 -14.66 11.065 -15 12 C-15.66 11.67 -16.32 11.34 -17 11 C-15.68573326 7.05719978 -14.25269486 4.62022641 -11 2 C-7.21220421 0.388172 -4.10538833 -0.24149343 0 0 Z " fill="#1B717B" transform="translate(220,454)"/>
<path d="M0 0 C0.33 0 0.66 0 1 0 C1.06058594 0.74765625 1.12117187 1.4953125 1.18359375 2.265625 C1.26738281 3.25046875 1.35117187 4.2353125 1.4375 5.25 C1.51871094 6.22453125 1.59992187 7.1990625 1.68359375 8.203125 C1.91773749 10.92074826 1.91773749 10.92074826 2.59765625 13.171875 C3 15 3 15 2 18 C1.34 18 0.68 18 0 18 C0 12.06 0 6.12 0 0 Z " fill="#061417" transform="translate(614,565)"/>
<path d="M0 0 C0.66 0.66 1.32 1.32 2 2 C-0.31 5.3 -2.62 8.6 -5 12 C-6 8 -6 8 -4.78515625 5.859375 C-4.21667969 5.16328125 -3.64820313 4.4671875 -3.0625 3.75 C-2.49660156 3.04359375 -1.93070313 2.3371875 -1.34765625 1.609375 C-0.90292969 1.07828125 -0.45820312 0.5471875 0 0 Z " fill="#132C33" transform="translate(867,468)"/>
<path d="M0 0 C4.56454251 0.54339792 7.9728176 1.79463821 12 4 C11.67 4.99 11.34 5.98 11 7 C9.9275 6.360625 8.855 5.72125 7.75 5.0625 C5.19177818 3.59398727 2.94659114 2.47145458 0 2 C0 1.34 0 0.68 0 0 Z " fill="#152D33" transform="translate(651,454)"/>
<path d="M0 0 C8 0.92307692 8 0.92307692 11 3 C11.33 3.99 11.66 4.98 12 6 C7.76570244 4.68938409 3.92592596 3.05643741 0 1 C0 0.67 0 0.34 0 0 Z " fill="#11262D" transform="translate(679,422)"/>
<path d="M0 0 C0 0.33 0 0.66 0 1 C-5.28 0.67 -10.56 0.34 -16 0 C-16 -0.33 -16 -0.66 -16 -1 C-9.93179132 -2.08360869 -5.89893243 -1.79074734 0 0 Z " fill="#18343B" transform="translate(659,534)"/>
<path d="M0 0 C0.66 0.33 1.32 0.66 2 1 C1.07161713 2.31896465 0.13194268 3.62998689 -0.8125 4.9375 C-1.59560547 6.03384766 -1.59560547 6.03384766 -2.39453125 7.15234375 C-4 9 -4 9 -7 10 C-6.67 9.01 -6.34 8.02 -6 7 C-5.34 7 -4.68 7 -4 7 C-3.71125 6.21625 -3.4225 5.4325 -3.125 4.625 C-2 2 -2 2 0 0 Z " fill="#0D2126" transform="translate(799,495)"/>
<path d="M0 0 C3.80881639 1.44472346 5.29742886 3.32603071 7 7 C6.67 7.99 6.34 8.98 6 10 C4.99723227 8.52270825 3.99785546 7.04311423 3 5.5625 C2.443125 4.73878906 1.88625 3.91507813 1.3125 3.06640625 C0 1 0 1 0 0 Z " fill="#0D1E23" transform="translate(888,590)"/>
<path d="M0 0 C-1 3 -1 3 -3.3125 4.75 C-6.32190521 6.14972335 -6.98041673 5.95287489 -10 5 C-8.71186658 4.16121545 -7.41936744 3.32913217 -6.125 2.5 C-5.40570313 2.0359375 -4.68640625 1.571875 -3.9453125 1.09375 C-2 0 -2 0 0 0 Z " fill="#1F7985" transform="translate(258,548)"/>
<path d="M0 0 C4.04648443 1.34882814 4.95502599 3.34826069 7 7 C6.67 7.99 6.34 8.98 6 10 C4.99421411 8.71283353 3.99553202 7.42011342 3 6.125 C2.443125 5.40570312 1.88625 4.68640625 1.3125 3.9453125 C0 2 0 2 0 0 Z " fill="#0D2026" transform="translate(838,517)"/>
<path d="M0 0 C0.66 0.33 1.32 0.66 2 1 C-3.14285714 6.57142857 -3.14285714 6.57142857 -7 7 C-5.66667905 3.00003714 -3.5042173 2.16217663 0 0 Z " fill="#0F2127" transform="translate(666,490)"/>
<path d="M0 0 C3.0210714 2.0140476 4.60667426 3.63279613 6 7 C5.01 7.33 4.02 7.66 3 8 C0.37613513 4.93882432 0 4.26826873 0 0 Z " fill="#162D34" transform="translate(845,525)"/>
<path d="M0 0 C1.875 0.625 1.875 0.625 4 2 C5.25 5.125 5.25 5.125 6 8 C5.34 8.66 4.68 9.32 4 10 C3.79503906 9.44570313 3.59007812 8.89140625 3.37890625 8.3203125 C3.10949219 7.59585937 2.84007812 6.87140625 2.5625 6.125 C2.29566406 5.40570313 2.02882813 4.68640625 1.75390625 3.9453125 C1.02083146 1.96351155 1.02083146 1.96351155 0 0 Z " fill="#22767F" transform="translate(287,356)"/>
<path d="M0 0 C-1.39332574 3.36720387 -2.9789286 4.9859524 -6 7 C-6 4 -6 4 -4.125 1.8125 C-2 0 -2 0 0 0 Z " fill="#227A86" transform="translate(133,426)"/>
<path d="M0 0 C0.99 0 1.98 0 3 0 C2.67 3.96 2.34 7.92 2 12 C1.67 12 1.34 12 1 12 C0.67 8.04 0.34 4.08 0 0 Z " fill="#113039" transform="translate(745,417)"/>
<path d="M0 0 C3.35595828 0.59927826 5.37801226 1.84622436 8 4 C7.67 4.99 7.34 5.98 7 7 C5.83040013 6.02433888 4.66438823 5.044375 3.5 4.0625 C2.8503125 3.51722656 2.200625 2.97195313 1.53125 2.41015625 C1.0259375 1.94480469 0.520625 1.47945312 0 1 C0 0.67 0 0.34 0 0 Z " fill="#0B1B21" transform="translate(703,523)"/>
<path d="M0 0 C1.32 0.33 2.64 0.66 4 1 C3.01 1.495 3.01 1.495 2 2 C1.34 1.34 0.68 0.68 0 0 Z " fill="#36969E" transform="translate(145,613)"/>
<path d="M0 0 C0.33 0 0.66 0 1 0 C1 1.65 1 3.3 1 5 C0.67 5 0.34 5 0 5 C0 3.35 0 1.7 0 0 Z " fill="#2A555F" transform="translate(452,555)"/>
<path d="M0 0 C0.99 0.33 1.98 0.66 3 1 C2.01 1 1.02 1 0 1 C0 0.67 0 0.34 0 0 Z " fill="#254E59" transform="translate(824,579)"/>
<path d="M0 0 C1 4 1 4 1 4 Z " fill="#2A5661" transform="translate(452,545)"/>
<path d="M0 0 C1 4 1 4 1 4 Z " fill="#2A5661" transform="translate(452,505)"/>
<path d="M0 0 C1 4 1 4 1 4 Z " fill="#295560" transform="translate(452,476)"/>
<path d="" fill="#264F5A" transform="translate(0,0)"/>
<path d="" fill="#254A55" transform="translate(0,0)"/>
<path d="" fill="#2B5660" transform="translate(0,0)"/>
<path d="" fill="#29535F" transform="translate(0,0)"/>
<path d="M0 0 C0.66 0.66 1.32 1.32 2 2 C1.34 2 0.68 2 0 2 C0 1.34 0 0.68 0 0 Z " fill="#2A505A" transform="translate(848,418)"/>
<path d="M0 0 C0.66 0.66 1.32 1.32 2 2 C1.34 2 0.68 2 0 2 C0 1.34 0 0.68 0 0 Z " fill="#28535A" transform="translate(790,416)"/>
<path d="M0 0 C0.66 0.66 1.32 1.32 2 2 C1.34 2 0.68 2 0 2 C0 1.34 0 0.68 0 0 Z " fill="#3199A4" transform="translate(200,384)"/>
<path d="M0 0 C2 1 2 1 2 1 Z " fill="#2A4F58" transform="translate(790,617)"/>
<path d="" fill="#2A555F" transform="translate(0,0)"/>
<path d="" fill="#2A545D" transform="translate(0,0)"/>
<path d="" fill="#264E57" transform="translate(0,0)"/>
<path d="" fill="#36949D" transform="translate(0,0)"/>
<path d="" fill="#264C55" transform="translate(0,0)"/>
<path d="" fill="#36939E" transform="translate(0,0)"/>
<path d="M0 0 C2 1 2 1 2 1 Z " fill="#3099A5" transform="translate(213,568)"/>
<path d="" fill="#2A5662" transform="translate(0,0)"/>
<path d="" fill="#29555F" transform="translate(0,0)"/>
<path d="" fill="#2A5661" transform="translate(0,0)"/>
<path d="" fill="#2A5460" transform="translate(0,0)"/>
<path d="" fill="#265058" transform="translate(0,0)"/>
<path d="" fill="#264D56" transform="translate(0,0)"/>
<path d="" fill="#295461" transform="translate(0,0)"/>
<path d="" fill="#254A55" transform="translate(0,0)"/>
<path d="" fill="#349099" transform="translate(0,0)"/>
<path d="" fill="#2E505A" transform="translate(0,0)"/>
<path d="" fill="#2B505A" transform="translate(0,0)"/>
<path d="" fill="#2C515A" transform="translate(0,0)"/>
<path d="" fill="#2C505A" transform="translate(0,0)"/>
<path d="" fill="#2B4F57" transform="translate(0,0)"/>
<path d="" fill="#2C4E58" transform="translate(0,0)"/>
<path d="" fill="#2D535C" transform="translate(0,0)"/>
<path d="" fill="#2A5059" transform="translate(0,0)"/>
<path d="" fill="#37949E" transform="translate(0,0)"/>
<path d="" fill="#254C55" transform="translate(0,0)"/>
<path d="" fill="#264E56" transform="translate(0,0)"/>
<path d="" fill="#274E58" transform="translate(0,0)"/>
<path d="" fill="#3795A0" transform="translate(0,0)"/>
<path d="" fill="#2C545F" transform="translate(0,0)"/>
<path d="" fill="#264D56" transform="translate(0,0)"/>
<path d="" fill="#2A4E57" transform="translate(0,0)"/>
<path d="" fill="#274E58" transform="translate(0,0)"/>
<path d="" fill="#29535D" transform="translate(0,0)"/>
<path d="" fill="#38959D" transform="translate(0,0)"/>
<path d="" fill="#234A53" transform="translate(0,0)"/>
<path d="" fill="#2B565F" transform="translate(0,0)"/>
<path d="" fill="#284E55" transform="translate(0,0)"/>
<path d="" fill="#38949D" transform="translate(0,0)"/>
<path d="" fill="#234A52" transform="translate(0,0)"/>
<path d="" fill="#36939C" transform="translate(0,0)"/>
<path d="" fill="#2B555E" transform="translate(0,0)"/>
<path d="" fill="#3A959F" transform="translate(0,0)"/>
<path d="" fill="#264E58" transform="translate(0,0)"/>
<path d="" fill="#35919E" transform="translate(0,0)"/>
<path d="" fill="#264C59" transform="translate(0,0)"/>
<path d="" fill="#274E58" transform="translate(0,0)"/>
<path d="" fill="#284D58" transform="translate(0,0)"/>
<path d="" fill="#274E55" transform="translate(0,0)"/>
<path d="" fill="#264D57" transform="translate(0,0)"/>
<path d="" fill="#274D57" transform="translate(0,0)"/>
<path d="" fill="#2A5460" transform="translate(0,0)"/>
<path d="" fill="#36939F" transform="translate(0,0)"/>
<path d="" fill="#28515A" transform="translate(0,0)"/>
<path d="" fill="#264D56" transform="translate(0,0)"/>
<path d="" fill="#294D56" transform="translate(0,0)"/>
<path d="" fill="#3696A1" transform="translate(0,0)"/>
<path d="" fill="#274F56" transform="translate(0,0)"/>
<path d="" fill="#2A565F" transform="translate(0,0)"/>
<path d="" fill="#264C57" transform="translate(0,0)"/>
<path d="" fill="#284E5A" transform="translate(0,0)"/>
<path d="" fill="#359DA6" transform="translate(0,0)"/>
<path d="" fill="#274E59" transform="translate(0,0)"/>
<path d="" fill="#264B54" transform="translate(0,0)"/>
<path d="" fill="#274E5A" transform="translate(0,0)"/>
<path d="" fill="#254E59" transform="translate(0,0)"/>
<path d="" fill="#284C55" transform="translate(0,0)"/>
<path d="" fill="#264E59" transform="translate(0,0)"/>
<path d="" fill="#264F56" transform="translate(0,0)"/>
<path d="" fill="#274F58" transform="translate(0,0)"/>
<path d="" fill="#274C55" transform="translate(0,0)"/>
<path d="" fill="#319EAB" transform="translate(0,0)"/>
<path d="" fill="#254B57" transform="translate(0,0)"/>
<path d="" fill="#264C57" transform="translate(0,0)"/>
<path d="" fill="#284D57" transform="translate(0,0)"/>
<path d="" fill="#264A55" transform="translate(0,0)"/>
<path d="" fill="#274E57" transform="translate(0,0)"/>
<path d="" fill="#234E57" transform="translate(0,0)"/>
<path d="" fill="#254C54" transform="translate(0,0)"/>
<path d="" fill="#295561" transform="translate(0,0)"/>
<path d="" fill="#2A5460" transform="translate(0,0)"/>
<path d="" fill="#254D56" transform="translate(0,0)"/>
<path d="" fill="#295662" transform="translate(0,0)"/>
<path d="" fill="#3496A3" transform="translate(0,0)"/>
<path d="" fill="#255158" transform="translate(0,0)"/>
<path d="" fill="#285058" transform="translate(0,0)"/>
<path d="" fill="#274E56" transform="translate(0,0)"/>
<path d="" fill="#26505A" transform="translate(0,0)"/>
<path d="" fill="#2D5662" transform="translate(0,0)"/>
<path d="" fill="#284C57" transform="translate(0,0)"/>
<path d="" fill="#264E59" transform="translate(0,0)"/>
<path d="" fill="#2A5760" transform="translate(0,0)"/>
<path d="" fill="#274F59" transform="translate(0,0)"/>
<path d="" fill="#264D58" transform="translate(0,0)"/>
<path d="" fill="#2A5762" transform="translate(0,0)"/>
<path d="" fill="#29505A" transform="translate(0,0)"/>
<path d="" fill="#2B5661" transform="translate(0,0)"/>
<path d="" fill="#3397A6" transform="translate(0,0)"/>
<path d="" fill="#2C5663" transform="translate(0,0)"/>
<path d="" fill="#2D97A3" transform="translate(0,0)"/>
<path d="" fill="#2A5560" transform="translate(0,0)"/>
<path d="" fill="#329BA9" transform="translate(0,0)"/>
<path d="" fill="#264E57" transform="translate(0,0)"/>
<path d="" fill="#329BA4" transform="translate(0,0)"/>
<path d="" fill="#264955" transform="translate(0,0)"/>
<path d="" fill="#264D57" transform="translate(0,0)"/>
<path d="" fill="#3398A5" transform="translate(0,0)"/>
<path d="" fill="#244855" transform="translate(0,0)"/>
<path d="" fill="#275058" transform="translate(0,0)"/>
<path d="" fill="#254F59" transform="translate(0,0)"/>
<path d="" fill="#234A56" transform="translate(0,0)"/>
<path d="" fill="#254C55" transform="translate(0,0)"/>
<path d="" fill="#264E58" transform="translate(0,0)"/>
<path d="" fill="#254D54" transform="translate(0,0)"/>
<path d="" fill="#359AA3" transform="translate(0,0)"/>
<path d="" fill="#29515A" transform="translate(0,0)"/>
<path d="" fill="#2E6973" transform="translate(0,0)"/>
<path d="" fill="#3997A2" transform="translate(0,0)"/>
<path d="" fill="#244E59" transform="translate(0,0)"/>
<path d="" fill="#254D57" transform="translate(0,0)"/>
<path d="" fill="#2E626C" transform="translate(0,0)"/>
<path d="" fill="#285058" transform="translate(0,0)"/>
<path d="" fill="#274E58" transform="translate(0,0)"/>
<path d="" fill="#294F58" transform="translate(0,0)"/>
<path d="" fill="#2A5058" transform="translate(0,0)"/>
<path d="" fill="#34959D" transform="translate(0,0)"/>
<path d="" fill="#3899A1" transform="translate(0,0)"/>
<path d="" fill="#264E59" transform="translate(0,0)"/>
<path d="" fill="#274F59" transform="translate(0,0)"/>
<path d="" fill="#3896A1" transform="translate(0,0)"/>
<path d="" fill="#3999A3" transform="translate(0,0)"/>
<path d="" fill="#38949E" transform="translate(0,0)"/>
<path d="" fill="#28505B" transform="translate(0,0)"/>
<path d="" fill="#3398A5" transform="translate(0,0)"/>
<path d="" fill="#369DA9" transform="translate(0,0)"/>
<path d="" fill="#2D535E" transform="translate(0,0)"/>
<path d="" fill="#349FAA" transform="translate(0,0)"/>
<path d="" fill="#329FAC" transform="translate(0,0)"/>
<path d="" fill="#379FAB" transform="translate(0,0)"/>
<path d="" fill="#349CA9" transform="translate(0,0)"/>
<path d="" fill="#34A2AE" transform="translate(0,0)"/>
<path d="" fill="#309EAB" transform="translate(0,0)"/>
<path d="" fill="#339CA6" transform="translate(0,0)"/>
<path d="" fill="#339CAA" transform="translate(0,0)"/>
<path d="" fill="#3B9BA6" transform="translate(0,0)"/>
<path d="" fill="#3898A2" transform="translate(0,0)"/>
<path d="" fill="#3894A1" transform="translate(0,0)"/>
<path d="" fill="#3A949E" transform="translate(0,0)"/>
</svg>
